<svg xmlns="http://www.w3.org/2000/svg" width="601.927" height="168.726" viewBox="0 0 601.927 168.726">
  <g id="Group_581" data-name="Group 581" transform="translate(-426.351 -543.925)">
    <g id="Group_506" data-name="Group 506" transform="translate(426.351 543.925)">
      <path id="Path_79" data-name="Path 79" d="M2.932,5.006A11,11,0,0,0,11.977-7.639,11,11,0,0,0-.668-16.684,10.988,10.988,0,0,0-9.71-4.04,10.994,10.994,0,0,0,2.932,5.006" transform="translate(161.893 57.074)" fill="#05493a"/>
      <path id="Path_80" data-name="Path 80" d="M2.107.034a10.99,10.99,0,1,0,8.2,1.905A10.995,10.995,0,0,0,2.107.034" transform="translate(159.123 138.827)" fill="#05493a"/>
      <path id="Path_81" data-name="Path 81" d="M2.932,5.007A11,11,0,0,0,11.977-7.638,11,11,0,0,0-.668-16.683,10.988,10.988,0,0,0-9.71-4.04,11,11,0,0,0,2.932,5.005" transform="translate(161.893 31.394)" fill="#05493a"/>
      <path id="Path_82" data-name="Path 82" d="M3.27,2.836A1.313,1.313,0,0,0,3.421,2.6,7.77,7.77,0,0,0,4.6-2.97a7.87,7.87,0,0,0-9.04-6.466A7.847,7.847,0,0,0-10.887-.407,7.775,7.775,0,0,0-6.9,5.184a10.214,10.214,0,0,1-.89-2.779,8.651,8.651,0,0,1,.125-3.8,5.545,5.545,0,0,1,.446-1.162L-7-2.963A.283.283,0,0,1-6.83-3.1a.283.283,0,0,1,.218.023.289.289,0,0,1,.145.329l-.01.036s-.035.151-.107.406a4.455,4.455,0,0,0-.153,1.073,7.392,7.392,0,0,0,.622,3.17,8.12,8.12,0,0,0,1.71,2.594c.145.121.289.263.391.331l.261.179c.067.036.1.064.151.092a5.611,5.611,0,0,0,2.09.409A5.557,5.557,0,0,0,1.163,4.86a.42.42,0,0,0,.109-.072.127.127,0,0,0,.088-.049,7.711,7.711,0,0,0,1.91-1.9" transform="translate(257.394 113.007)" fill="#05493a"/>
      <path id="Path_88" data-name="Path 88" d="M1.768,3.421l-.2.152c.013.367.031.733.041,1.1A21.908,21.908,0,0,0,3.1,10.765,14.144,14.144,0,0,0,4.267,13.09a.355.355,0,0,0,.667.027,4.366,4.366,0,0,0,.858-3.456A12,12,0,0,0,3.276,4.75,11.233,11.233,0,0,0,1.768,3.421M3.921,27.012c.347-.373.728-.724,1.034-1.127a24.614,24.614,0,0,1,4.4-4.463,11.408,11.408,0,0,1,1.976-1.132,1.36,1.36,0,0,1,.693,0c.391.047.781.108,1.168.188a6.864,6.864,0,0,1,.89.249c.575.2,1.142.434,1.716.641.637.229.737.523.231.962-.6.52-1.291.933-1.887,1.457-1.013.89-2.015,1.8-2.96,2.757a28.273,28.273,0,0,0-4.6,6.647,41.567,41.567,0,0,0-3.631,8.543c-.533,1.926-.908,3.9-1.366,5.843-.2.846-.389,1.7-.659,2.52a4.8,4.8,0,0,1-.694,1.18c-.046.064-.342.047-.428-.034a2.838,2.838,0,0,1-.794-.913,6.034,6.034,0,0,1-.491-2.07c0-1.576.149-3.153.257-4.726.052-.741.217-1.478.2-2.214-.007-.479.669-6.678.815-8.133.093-.923.157-1.853.16-2.779.005-1.6-.017-3.191-.085-4.786-.065-1.52-.145-3.047-.326-4.559-.258-2.1-.613-4.186-.932-6.285A8.684,8.684,0,0,0-1.64,13.47c-.14-.446-.4-.854-.543-1.3a2,2,0,0,1,.018-.679c.008-.185.08-.4.012-.546-.453-1-.93-1.982-1.412-2.967A24.893,24.893,0,0,1-5.862.443a10.927,10.927,0,0,1,.078-3.049c.05-.345.567-.713.953-.9a2.381,2.381,0,0,1,1.245-.149,14.211,14.211,0,0,0,4.975-.422A38.786,38.786,0,0,0,5.475-5.541c1.969-.724,3.942-1.436,5.908-2.171,1.407-.527,2.808-1.074,4.207-1.625a26.538,26.538,0,0,1,6.21-1.7,35.348,35.348,0,0,1,6.368-.416,15.737,15.737,0,0,1,5.712,1.536c1.09.5,2.18,1,3.247,1.549a1.163,1.163,0,0,1,.6.663c.033.185-.3.471-.512.655-.63.54-1.2.121-1.782-.145a11.644,11.644,0,0,0-6.084-1.184c-.331.031-.667-.013-1,0a22.42,22.42,0,0,0-6.99,1.455c-1.756.635-3.531,1.217-5.283,1.868-1.375.507-2.714,1.1-4.08,1.633-2.111.817-4.233,1.6-6.346,2.418a6.349,6.349,0,0,0-.8.442,4.3,4.3,0,0,0,.607.594A13.347,13.347,0,0,1,8.77,3.2a12.6,12.6,0,0,1,1.313,2.56A11.915,11.915,0,0,1,11.25,9.677a9.059,9.059,0,0,1-.812,4.269A7.061,7.061,0,0,1,7.7,16.761a3.256,3.256,0,0,1-3.443.1c-.643-.289-1.1.059-1.051.789.1,1.426.229,2.849.308,4.275.08,1.465.109,2.931.166,4.4.008.213.048.426.072.638Z" transform="translate(264.635 42.742)" fill="#05493a"/>
      <path id="Path_89" data-name="Path 89" d="M.416,1.486A6.965,6.965,0,0,0,.2.362C.048-.051-.211-.424-.4-.825A9.407,9.407,0,0,1-1.341-3.01,5.138,5.138,0,0,1-.985-4.87a.213.213,0,0,1,.169-.123c.3.067.619.262.894.212a.663.663,0,0,1,.776.362A4.983,4.983,0,0,0,2.56-3.073c1.077.68,2,1.6,3.081,2.272,1.553.968,3.18,1.819,4.786,2.7,2.032,1.113,4.058,2.235,6.115,3.3,1.183.61,2.416,1.129,3.641,1.651,1.381.589,2.75,1.224,4.175,1.68,1.6.511,3.256.859,4.895,1.245.354.083.589.187.617.579.023.314.072.625.083.941.005.124-.005.318-.083.368q-.977.64-1.989,1.23c-.217.127-.528.131-.7.293a3.17,3.17,0,0,1-3.285.564,57.632,57.632,0,0,1-7.249-2.507c-1.928-.816-3.86-1.622-5.777-2.46A22.121,22.121,0,0,1,8.794,7.706C7.385,6.9,5.929,6.156,4.613,5.219a44.489,44.489,0,0,1-3.6-3.068,3.011,3.011,0,0,1-.449-.7l-.153.038" transform="translate(276.933 49.912)" fill="#05493a"/>
      <path id="Path_90" data-name="Path 90" d="M3.205,3.864A6.7,6.7,0,0,0,6.118,6.4a3.913,3.913,0,0,0,1.52.174c.609.041,1.219.035,1.823.1.123.013.3.257.31.4.021.3-.805,1.158-1.106,1.208a20.784,20.784,0,0,1-6.814.109A5.88,5.88,0,0,1-1.389,6.778,13.481,13.481,0,0,1-2.7,5.43a5.522,5.522,0,0,1-.829-3.718C-3.432-.551-2.232-2.215-.81-3.807a3.966,3.966,0,0,0,.672-.881,1.077,1.077,0,0,0,.023-.776,3.216,3.216,0,0,0-.579-.877A8.142,8.142,0,0,0-6.257-9.583c-1.158-.1-2.316-.226-3.479-.339a.447.447,0,0,1-.111-.009c-.314-.118-.627-.239-.941-.362.217-.429.332-1.085.676-1.247A10.511,10.511,0,0,1-5.88-12.987a16.515,16.515,0,0,1,1.664.054A13.247,13.247,0,0,1,.15-11.885,13.016,13.016,0,0,1,5.807-7.353a2.663,2.663,0,0,1,.09,2.2c-.026.117-.19.213-.306.3a3.891,3.891,0,0,0-.766.539c-.936,1.134-2.1,2.15-2.294,3.727A6.3,6.3,0,0,0,3.2,3.863" transform="translate(261.269 20.832)" fill="#05493a"/>
      <path id="Path_91" data-name="Path 91" d="M1.1,1.989A4.836,4.836,0,0,1,.743,1.56C.381,1,.054.6-.8.841-1.309.986-1.973.644-2.557.48-2.669.448-2.77.232-2.8.085-3.1-1.458-3.377-3-3.672-4.546A1.2,1.2,0,0,1-3.384-5.57,1.2,1.2,0,0,1-2.4-5.964a1.046,1.046,0,0,0,.6-.056c.9-.6,1.962-.462,2.945-.656a.773.773,0,0,1,.613.1.773.773,0,0,1,.337.523c.3,1.158.676,2.3,1.007,3.452A1.949,1.949,0,0,1,2.952-.838a.675.675,0,0,0,.095.628c.579.627,1.183,1.23,1.813,1.8a.981.981,0,0,0,.622.106c.981-.027,1.959-.1,2.939-.106a.842.842,0,0,1,.918.846c.113,1.049.27,2.091.389,3.14a2.605,2.605,0,0,1-1.2,2.3c-.175.145-.568.048-.861.047-.81,0-1.625.035-2.429-.043a5.736,5.736,0,0,1-1.486-.44c-.111-.044-.182-.3-.2-.466-.072-.7-.09-1.4-.185-2.1a1.609,1.609,0,0,0-.344-.728c-.6-.753-1.23-1.481-1.849-2.22L1.1,1.988" transform="translate(249.442 28.566)" fill="#05493a"/>
      <path id="Path_92" data-name="Path 92" d="M.834,1.975a4.6,4.6,0,0,1-.281-.483C.286.881.032.431-.847.533c-.53.061-1.13-.386-1.68-.646-.1-.048-.167-.279-.172-.428-.043-1.572-.072-3.143-.1-4.715a1.2,1.2,0,0,1,.454-.96A1.2,1.2,0,0,1-1.31-6.442a1.041,1.041,0,0,0,.6.041C.273-6.847,1.3-6.535,2.3-6.566a.774.774,0,0,1,.587.205.774.774,0,0,1,.246.571c.1,1.193.289,2.379.427,3.57A1.947,1.947,0,0,1,3.126-.507a.672.672,0,0,0-.009.635c.466.714.967,1.406,1.494,2.075a1,1,0,0,0,.6.206c.97.132,1.949.222,2.915.376a.84.84,0,0,1,.767.983c-.061,1.054-.077,2.108-.131,3.162A2.605,2.605,0,0,1,7.194,9c-.2.118-.568-.047-.856-.095-.8-.137-1.61-.232-2.388-.44a5.7,5.7,0,0,1-1.4-.678c-.1-.061-.131-.324-.121-.491.043-.7.14-1.4.161-2.1a1.592,1.592,0,0,0-.217-.777C1.9,3.578,1.4,2.756.915,1.927Z" transform="translate(269.564 6.643)" fill="#05493a"/>
      <path id="Path_93" data-name="Path 93" d="M7.094,16.476c.008.018.008.018.026.027l.047.036c.018,0,.018,0,.026.02.1.054.274.172.5.314a39.2,39.2,0,0,0,4.927,2.636,32.282,32.282,0,0,0,13.9,3.14A21.475,21.475,0,0,0,42.17,15.285C47.061,9.752,49.8,2.505,51.722-4.481a49.826,49.826,0,0,0,1.9-12.439.417.417,0,0,1,.01-.109v-.386c1.126-26.7-36.657-37.991-36.657-37.991-.072.079-12.4,14.171-14.459,31.268C1.064.473,26.508,8.378,28.676,9c.052.018.11.026.162.044.018,0,4.323-5.56,4.323-5.56s.01-.01.01-.017l10.1-13.015c.018-.036.01-.072-.027-.072A46.682,46.682,0,0,1,27.558-13.69a.961.961,0,0,0-.1-.046c-.324-.145-.651-.306-.983-.468-1.718-.819-3.4-1.715-5.01-2.683C14.09-21.3,9.762-27.851,10.642-35.162a.041.041,0,0,1,.025-.032.041.041,0,0,1,.04.006c7.1,4.728,15.07,8,22.067,12.976A37.984,37.984,0,0,1,43.732-10.305a20.2,20.2,0,0,1,2.2,5.407C47.177.3,46.277,7.864,41.35,10.98A19.925,19.925,0,0,1,33.831,13.2a.2.2,0,0,1-.072.008,31.213,31.213,0,0,1-9.776-.651,31.985,31.985,0,0,1-4.675-1.434A42.188,42.188,0,0,1,5.587,3.871,50.562,50.562,0,0,1-3.584-5.647.254.254,0,0,1-3.62-5.7c-7.059-10.416-7.545-14.458-7.545-14.458S-19.362-6.5-23.855.743l.118.072h0a47.873,47.873,0,0,1,4.529,2.879A50.831,50.831,0,0,1-2.178,24.71,49.762,49.762,0,0,1,.55,32.75a50.716,50.716,0,0,1,1.481,12.2A50.43,50.43,0,0,1-2.123,65.054H19.866a.043.043,0,0,0,.047-.044c-.642-12.871-3.145-39.472-12.845-48.534a.244.244,0,0,1-.026-.026c.008.008.016.008.026.018Z" transform="translate(180.808 95.647)" fill="#05493a"/>
      <path id="Path_94" data-name="Path 94" d="M6.466,7.792a45.86,45.86,0,0,1,7.545,8.967s.072.116.193.318a44.254,44.254,0,0,1,6.858,25.2,51.517,51.517,0,0,1-2.571,17.213h0a40.368,40.368,0,0,1-9.506,14.58.154.154,0,0,0,.116.265.257.257,0,0,0,.1-.03,37.574,37.574,0,0,0,5.778-7.137A65.591,65.591,0,0,0,25.41,46.546c0-.013.013-.043.013-.059v-.013c12.111-38.825-14.9-60.236-28.51-68.259a77.279,77.279,0,0,0-7.9-4.414L-21.744-8.577s.406.185,1.106.416c9.822,4,19.176,8.684,27.1,15.952" transform="translate(223.33 40.837)" fill="#05493a"/>
      <path id="Path_100" data-name="Path 100" d="M.371,8.9a18.01,18.01,0,0,0,3.523-.792c4.39-4.5,4.5,13.738,4.518,15.282.008.679.611,1.091,1.282,1.335,2.587.957,3.411-1.109,4.528-3.212,3.562-6.683,3.8-17.27,3.727-23.913-.083-7.57.217-17.213,3.691-19.342,4.868-2.99,6.409,3.989,6.644,5.253a.046.046,0,0,0,.047.031.046.046,0,0,0,.042-.038c1.481-5.513,1.08-9.247-.267-11.335-2.077-3.233-5.453-2.329-7.866-.188C14.727-23.139,15.878-13,15.915-6.466,15.94-2.537,15.858,2,15.451,6.206c-.517,5.442-1.706,10.373-4.346,12.885a.047.047,0,0,1-.078-.038C11.18,17.566,12.561,3.005,7.539-.622c-1.654-1.191-4.2-.969-5.982-.149C-2.633,1.159-1.319,6.744.334,8.886A.042.042,0,0,0,.37,8.9" transform="translate(76.215 92.967)" fill="#05493a"/>
      <path id="Path_101" data-name="Path 101" d="M38.584,11.9c.093-.093.171-.19.25-.284v-.047C33.928,2.99,22.878-5.05,22.19-5.554l-.031-.033A83.9,83.9,0,0,1,12.635,7.867,89.639,89.639,0,0,1-31.548,35.719c-88.46,14.349-96.421-68.73-96.421-68.73a3.807,3.807,0,0,0,5.018-.929,3.763,3.763,0,0,0,.745-2.8,3.763,3.763,0,0,0-1.469-2.5,3.8,3.8,0,0,0-5.305.71,3.772,3.772,0,0,0-.771,2.232c0,.034-.016.049-.016.079,0,0,.048.772.157,2.2.048.724.095,1.605.174,2.646.031.5.064,1.067.1,1.664.092.6.2,1.23.283,1.889q.305,2.007.659,4.438c.362,1.62.787,3.271,1.23,5.1.222.9.458,1.842.693,2.8.3.959.661,1.92,1.007,2.91.362.991.71,2.016,1.1,3.052.172.537.362,1.056.551,1.592.235.517.488,1.038.707,1.557.643,1.306,1.244,2.677,1.938,4.06l.013.064.016.033c.378.771.774,1.541,1.213,2.311.217.362.455.724.676,1.1A93.946,93.946,0,0,0-36.9,49.9,93.52,93.52,0,0,0,19.858,30.826l1.512-1.182A93.485,93.485,0,0,0,38.583,11.9" transform="translate(129.766 109.522)" fill="#05493a"/>
    </g>
    <g id="Group_508" data-name="Group 508" transform="translate(750.687 589.416)">
      <g id="Group_507" data-name="Group 507" transform="translate(0)">
        <path id="Path_95" data-name="Path 95" d="M34.346,39.819h-27v-.084A4.167,4.167,0,0,1,3.4,35.553V4.79A4.232,4.232,0,0,1,7.66.521H8.4V.487H21.864a8.644,8.644,0,0,1,8.368,6.53,14.926,14.926,0,0,1,1.126,5.535,15.666,15.666,0,0,1-8.99,14.155c-.2.121-.121.358.068.358h12.37a6.393,6.393,0,0,1,6.287,7.357,6.7,6.7,0,0,1-6.748,5.4m5.908-22.078c-.155,0-.233-.112-.155-.23a17.507,17.507,0,0,0,2.058-8.306A17.937,17.937,0,0,0,24.256-8.7H-7.3a.205.205,0,0,0-.205.19V48.97a.205.205,0,0,0,.205.19h45.71A16.3,16.3,0,0,0,55.018,34.222a15.647,15.647,0,0,0-14.78-16.48" transform="translate(222.549 30.121)" fill="#05493a"/>
        <path id="Path_96" data-name="Path 96" d="M52.453,21.807H22.291a.177.177,0,0,0-.177.177V30.79a.177.177,0,0,0,.177.177H42.378a.211.211,0,0,1,.2.255,16.994,16.994,0,0,1-16.35,12.416H16.352a16.773,16.773,0,0,1-7.82-1.925A16.99,16.99,0,0,1-.629,26.652V21.586A17.018,17.018,0,0,1,16.352,4.558h5.827a12.357,12.357,0,0,1-1.1-5.1,11.984,11.984,0,0,1,.753-4.226H14.122A25.593,25.593,0,0,0-11.466,20.827v6.794a25.6,25.6,0,0,0,25.594,25.6H28.644a23.01,23.01,0,0,0,4.269-.386c.289-.044.591-.09.908-.155.224-.044.47-.1.69-.155A25.383,25.383,0,0,0,49.2,42.706a3.047,3.047,0,0,0,.233-.339,24.37,24.37,0,0,0,3.215-20.433.205.205,0,0,0-.19-.134" transform="translate(31.905 26.16)" fill="#05493a"/>
        <path id="Path_97" data-name="Path 97" d="M81.221,40.125l-.578.336c-.507.283-1.007.641-1.433.9l-.389.246a3.088,3.088,0,0,1-.622.379l-3.262,1.779c-.507.246-1.011.423-1.511.622-.274.14-.507.205-.74.311-.345.121-.659.246-.97.389-.429.155-.933.358-1.356.547l-.47.112c-.7.2-1.356.395-2.012.6l-1.244.379a3,3,0,0,0-.7.121,2.8,2.8,0,0,1-.547.112l-1.667.311a46.142,46.142,0,0,1-23.262-3.337c-.121-.09-.168-.2-.09-.311l3.458-5.093,11.564-16.91,7.64-11.126a.174.174,0,0,1,.311,0L82.772,38.916c-.5.429-1.007.821-1.555,1.21M92.045,32.5a4.015,4.015,0,0,0,.423-.563l.23-.311a2.488,2.488,0,0,0,.389-.457l.19-.311c.389-.5.7-1.02,1.082-1.555l1.054-1.511c.267-.5.513-.933.774-1.433.246-.389.423-.78.622-1.138.311-.507.547-1.007.849-1.577.6-1.2,1.1-2.453,1.6-3.731a16.228,16.228,0,0,0,1.042-2.677,4.663,4.663,0,0,0,.155-1.126,3.212,3.212,0,0,0-.5-1.822,3.11,3.11,0,0,0-2.341-1.2,2.767,2.767,0,0,0-1.116.19,2.929,2.929,0,0,0-1.589,3.756,3,3,0,0,0,2.705,1.822,2.693,2.693,0,0,0-.177.423l-.078.19c-.112.311-.246.641-.423,1.1l-.4.812c-.19.442-.358.933-.55,1.443a20.671,20.671,0,0,0-1.315,2.4l-.149.246c-.239.423-.547.933-.824,1.4a9.826,9.826,0,0,1-.933,1.427L91.672,29.8a.793.793,0,0,1-.311.507l-.112.224c-.19.2-.423.47-.622.7L69.7.634,63.335-8.672a.2.2,0,0,0-.145-.1.2.2,0,0,0-.166.054l-4.3,6.284L56.59.712l-10.084,14.7L41.043,23.5l-2.659,3.784L30.859,38.381c-.068.068-.19.112-.255.034a48.76,48.76,0,0,1-9.58-9.117,31.668,31.668,0,0,0,3.134-2.012,21.577,21.577,0,0,0,6.71-9.2,17.684,17.684,0,0,0,.933-3.557,17.755,17.755,0,0,0,.386-3.769,21.3,21.3,0,0,0-.731-5.666A18.2,18.2,0,0,0,27.5-2.432c-.5-.659-1.166-1.2-1.7-1.779A18.057,18.057,0,0,0,14.155-8.47H-17.563a.171.171,0,0,0-.141.049.171.171,0,0,0-.049.141V49.2a.171.171,0,0,0,.049.141.171.171,0,0,0,.141.049H-7.015a.174.174,0,0,0,.139-.05.174.174,0,0,0,.05-.139V36.322a1.328,1.328,0,0,1-.078-.547V5.016A4.257,4.257,0,0,1-5.654,2,4.257,4.257,0,0,1-2.637.756l.78-.044H11.6a8.616,8.616,0,0,1,8.34,6.53,14.3,14.3,0,0,1,1.088,5.47A15.765,15.765,0,0,1,16.8,23.452a21.932,21.932,0,0,1-2.329,2.09,13.576,13.576,0,0,1-4.459,1.822,9.428,9.428,0,0,0-1.934.224H6.287a1.891,1.891,0,0,0,.358.423A46.885,46.885,0,0,0,19.727,41.559c.28.19.578.423,1,.69l.078.044c1.757,1.076,3.5,2.08,5.4,3.022.5.233,1.007.5,1.511.737a49.87,49.87,0,0,0,9.052,3.019h.155a48.676,48.676,0,0,0,11.981,1.4,62.121,62.121,0,0,0,9.54-.768,4.443,4.443,0,0,1,.709-.127c0-.034.112-.034.19-.034h.2c.224-.078.535-.078.88-.155.311,0,.622-.034.852-.034a8.648,8.648,0,0,0,1.835-.28l.88-.112c.55-.112,1.2-.224,1.757-.389l.507-.034a4.446,4.446,0,0,1,.8-.18l1.287-.311c.815-.311,1.654-.507,2.516-.787.463-.19.933-.336,1.356-.535a10.977,10.977,0,0,1,1.088-.379c.311-.121.622-.283.858-.395.5-.2,1.076-.389,1.589-.622l.19-.112c.622-.389,1.331-.69,2.024-1.088l1.119-.547c.233-.155.547-.311.815-.5l.233-.2a12.088,12.088,0,0,0,1.309-.808l.709-.457a12.334,12.334,0,0,0,1.629-1.185h.062l6.1,8.959a.236.236,0,0,0,.168.078h12.671c.146,0,.233-.146.146-.311L91.768,32.809a1.244,1.244,0,0,1,.28-.336" transform="translate(109.273 29.902)" fill="#05493a"/>
        <path id="Path_98" data-name="Path 98" d="M0,0V57.511a.18.18,0,0,0,.19.177H10.669a.177.177,0,0,0,.177-.177V0A12.127,12.127,0,0,1,5.435,1.287,12.161,12.161,0,0,1,0,0" transform="translate(2.052 21.582)" fill="#05493a"/>
        <path id="Path_99" data-name="Path 99" d="M6.213,0a7.575,7.575,0,1,0,7.581,7.581A7.575,7.575,0,0,0,6.213,0" transform="translate(1.356)" fill="#05493a"/>
      </g>
      <text id="S_T_O_R_Y_C_A_F_E" data-name="S T  O  R  Y    C  A  F  E" transform="translate(137.001 114.235)" fill="#05493a" font-size="27" font-family="Poppins-Regular, Poppins" letter-spacing="0.002em"><tspan x="-137.133" y="0" xml:space="preserve">S T  O  R  Y    C  A  F  E</tspan></text>
    </g>
  </g>
</svg>
